<svg xmlns="http://www.w3.org/2000/svg" version="1.1" xmlns:xlink="http://www.w3.org/1999/xlink" xmlns:svgjs="http://svgjs.dev/svgjs" width="100%" height="100%" viewBox="0 0 1000 600"><rect width="1000" height="600" x="0" y="0" fill="#f7f7f7"/><g><rect width="333.3333333333333" height="333.3333333333333" rx="13.333333333333334" ry="13.333333333333334" y="273.1953056419855" fill="#2768c9" transform="matrix(0.498061388745046,0,0,0.498061388745046,0,80.92173402313394)" x="250.97314453125"/><path d="M351.92939699204595 514.8619845014168L298.83771271410734 514.8619845014168L298.83771271410734 364.86198494507227L346.6958246097738 364.86198494507227Q360.5066406185475 364.86198494507227 370.5085789491121 367.5950727447033Q380.4814418775529 370.2990851422106 386.9361811490219 375.3291297096166Q393.36184501836715 380.35917427702265 396.44383764348294 387.62802480795614Q399.5549056707225 394.89687533888974 399.5549056707225 404.02655160574227L399.5549056707225 404.02655160574227Q399.5549056707225 409.55087800925173 397.81038154329843 414.69722418515266Q396.09493281799814 419.8144949589299 392.5768091610263 424.2048806796137Q389.08776090617823 428.6243418024213 383.79603771965856 432.05523925302197Q378.504314533139 435.51521210574634 371.38084101282413 437.7249426671501L371.38084101282413 437.7249426671501Q387.8084432127339 440.95231230288465 396.18215902436935 449.55863133150996Q404.55587483600476 458.13587495801147 404.55587483600476 472.1502187816514L404.55587483600476 472.1502187816514Q404.55587483600476 481.6869506782362 401.0668265811567 489.53730925164444Q397.54870292418485 497.3876678250527 390.8032096314785 503.0282958370571Q384.0577163387722 508.69799925118525 374.25930582307376 511.77999187630104Q364.4899707094991 514.8619845014168 351.92939699204595 514.8619845014168L351.92939699204595 514.8619845014168ZM351.49326596018994 446.50571410851785L319.16141879859754 446.50571410851785L319.16141879859754 498.7542117248682L351.60956756868484 498.7542117248682Q360.3031128036814 498.7542117248682 366.52524885816047 496.74800897833046Q372.74738491263963 494.7708816339166 376.78886580783865 491.1655317705735Q380.801271300914 487.5311065051068 382.6911724389567 482.5592127419482Q384.5810735769994 477.5873189787897 384.5810735769994 471.6268615434242L384.5810735769994 471.6268615434242Q384.5810735769994 460.02577609605424 376.35273477598264 453.2512074012242Q368.15347137708966 446.50571410851785 351.49326596018994 446.50571410851785L351.49326596018994 446.50571410851785ZM319.16141879859754 380.8825315152498L319.16141879859754 432.05523925302197L345.93986415455674 432.05523925302197Q354.54618318318205 432.05523925302197 360.8264700419086 430.194413517103Q367.1067569006352 428.30451237906027 371.23546400220545 424.96084113483084Q375.3641711037757 421.5880944884777 377.3412984481896 416.848803942309Q379.3475011947273 412.0804379940166 379.3475011947273 406.41073457988847L379.3475011947273 406.41073457988847Q379.3475011947273 393.23957741783687 371.38084101282413 387.0465167654815Q363.4432562330447 380.8825315152498 346.6958246097738 380.8825315152498L346.6958246097738 380.8825315152498L319.16141879859754 380.8825315152498ZM419.00634969150065 364.86198494507227L536.441898869263 364.86198494507227L536.441898869263 381.92924599170425L488.00227893112185 381.92924599170425L488.00227893112185 514.8619845014168L467.67857284663165 514.8619845014168L467.67857284663165 381.92924599170425L419.00634969150065 381.92924599170425L419.00634969150065 364.86198494507227Z " fill="#f7f7f7" transform="matrix(0.498061388745046,0,0,0.498061388745046,0,80.92173402313394)"/><path d="M718.7310163535833 513.2391487214531L667.6398062450419 513.2391487214531L667.6398062450419 368.89109124611656L713.6946429584368 368.89109124611656Q726.9850727511844 368.89109124611656 736.6101419063532 371.5211973524708Q746.2072312093268 374.1233236066298 752.4187583966741 378.96383803640947Q758.6023057318262 383.80435246618913 761.5681700645234 390.7993155150037Q764.562014249416 397.7942785638182 764.562014249416 406.5799521531292L764.562014249416 406.5799521531292Q764.562014249416 411.89612407022827 762.8832231177006 416.84855790878896Q761.2324118381804 421.7730118951544 757.8468497225541 425.99796957663835Q754.4892674591231 430.2509071103176 749.3969343595861 433.5525296693581Q744.3046012600491 436.88213208059375 737.449537472211 439.0086008474334L737.449537472211 439.0086008474334Q753.2581539625318 442.11436444110706 761.3163513947661 450.3964006909035Q769.3745488270005 458.6504570885046 769.3745488270005 472.136745846619L769.3745488270005 472.136745846619Q769.3745488270005 481.3141373666637 766.0169665635696 488.8686974593834Q762.6314044479433 496.42325755210305 756.1400787386434 501.8513488779831Q749.6487530293435 507.30742005605845 740.2195428395415 510.2732843887558Q730.8183125019348 513.2391487214531 718.7310163535833 513.2391487214531L718.7310163535833 513.2391487214531ZM718.3113185706544 447.45851621040134L687.1977229295273 447.45851621040134L687.1977229295273 497.7383106052802L718.4232379794355 497.7383106052802Q726.7892137858177 497.7383106052802 732.7769021556028 495.80770080380734Q738.764590525388 493.9050708545298 742.6537899805289 490.4355691823178Q746.5150095834746 486.93808765791056 748.3336999761664 482.1535329325214Q750.1523903688582 477.3689782071323 750.1523903688582 471.6331085071044L750.1523903688582 471.6331085071044Q750.1523903688582 460.4691474811964 742.2340921976001 453.9498419197012Q734.3437738785374 447.45851621040134 718.3113185706544 447.45851621040134L718.3113185706544 447.45851621040134ZM687.1977229295273 384.3079898057038L687.1977229295273 433.5525296693581L712.9671668013601 433.5525296693581Q721.2492030511565 433.5525296693581 727.2928511253323 431.76181912886153Q733.336499199508 429.94312873616974 737.3096382112346 426.72544573371505Q741.2827772229614 423.47978287906517 743.1854071722389 418.91906697123807Q745.1160169737117 414.3303712112157 745.1160169737117 408.8743000331404L745.1160169737117 408.8743000331404Q745.1160169737117 396.19942698868846 737.449537472211 390.23971847109846Q729.8110378229055 384.3079898057038 713.6946429584368 384.3079898057038L713.6946429584368 384.3079898057038L687.1977229295273 384.3079898057038ZM792.7657052622362 411.1966277653468L810.6728106672015 411.1966277653468L810.6728106672015 476.27776397151723Q810.6728106672015 487.8614227803541 816.0169624364958 494.21284922867767Q821.36111420579 500.536295824806 832.1333573009645 500.536295824806L832.1333573009645 500.536295824806Q839.995695767832 500.536295824806 846.934699112256 496.8149754828367Q853.9016823088753 493.0936551408674 859.7494714176842 486.43445031839593L859.7494714176842 486.43445031839593L859.7494714176842 411.1966277653468L877.6565768226494 411.1966277653468L877.6565768226494 513.2391487214531L866.9962531362561 513.2391487214531Q863.1630133855057 513.2391487214531 862.1557387064764 509.5178283794839L862.1557387064764 509.5178283794839L860.7567460967135 498.5217464667474Q854.0975412742421 505.8804475941003 845.8434848766409 510.3572239453416Q837.5894284790397 514.8619801487782 826.9011249404512 514.8619801487782L826.9011249404512 514.8619801487782Q818.535149134069 514.8619801487782 812.1557428335501 512.0919747814476Q805.748356680836 509.32196941411706 801.411479590571 504.2855960189706Q797.074602500306 499.2492226238241 794.9201538812712 492.086380461838Q792.7657052622362 484.92353829985194 792.7657052622362 476.27776397151723L792.7657052622362 476.27776397151723L792.7657052622362 411.1966277653468ZM909.1898702467053 364.8619925299994L927.1249555038657 364.8619925299994L927.1249555038657 513.2391487214531L909.1898702467053 513.2391487214531L909.1898702467053 364.8619925299994ZM999.1450950544602 409.6017761902171L999.1450950544602 409.6017761902171Q1008.3224865745049 409.6017761902171 1016.0729056325913 412.65158007950026Q1023.8233246906777 415.7293638209786 1029.4752548341198 421.5211932253971Q1035.0992051253668 427.3130226298155 1038.2889082756262 435.81889769717395Q1041.4506315736903 444.3527526167277 1041.4506315736903 455.2089352684879L1041.4506315736903 455.2089352684879Q1041.4506315736903 459.4618728021671 1040.555276303442 460.86086541193Q1039.6319411809986 462.2598580216929 1037.1137544834255 462.2598580216929L1037.1137544834255 462.2598580216929L969.2346330577292 462.2598580216929Q969.430492023096 471.9408868812522 971.8367593118883 479.1037290432383Q974.2710064528757 486.2385913530291 978.4959641343596 491.0231460784183Q982.7209218158437 495.80770080380734 988.5687109246526 498.18598824040436Q994.4165000334615 500.536295824806 1001.6632817520333 500.536295824806L1001.6632817520333 500.536295824806Q1008.4064261310907 500.536295824806 1013.3029002652607 498.9974039540668Q1018.1713945472356 497.43053223113236 1021.6968559238383 495.61184183844057Q1025.2223173004409 493.79315144574883 1027.6006047370377 492.22627972281435Q1029.9788921736344 490.6873878520751 1031.6856631575454 490.6873878520751L1031.6856631575454 490.6873878520751Q1033.8960714809707 490.6873878520751 1035.0992051253668 492.3941588359859L1035.0992051253668 492.3941588359859L1040.1355785205133 498.9414442496763Q1036.8059761092775 502.97054296579347 1032.18930049706 505.9364072984908Q1027.5446450326472 508.90227163118817 1022.2564529677434 510.832881432661Q1016.9682609028396 512.7355113819385 1011.3443106115926 513.6868263565773Q1005.6923804681505 514.638141331216 1000.1523697334894 514.638141331216L1000.1523697334894 514.638141331216Q989.5759856036818 514.638141331216 980.6504127533944 511.0847001024183Q971.7528197553024 507.50327902142527 965.2614940460026 500.5922555291965Q958.7421884845074 493.709211889163 955.1327875513191 483.52454569008904Q951.4954067659355 473.3398794910151 951.4954067659355 460.16136910704853L951.4954067659355 460.16136910704853Q951.4954067659355 449.47306556845996 954.7690494727808 440.21173449182953Q958.0426921796259 430.95040341519905 964.1982596625828 424.1512993317513Q970.3258472933443 417.3521952483036 979.1954604392411 413.46299579316275Q988.065073585138 409.6017761902171 999.1450950544602 409.6017761902171ZM999.5368129851938 422.7802865741837L999.5368129851938 422.7802865741837Q986.554161566594 422.7802865741837 979.1115208826553 430.2788869625129Q971.6409003465214 437.80546720303727 969.8222099538297 451.0958969957849L969.8222099538297 451.0958969957849L1025.3342367092218 451.0958969957849Q1025.3342367092218 444.85638995624237 1023.627465725311 439.6521374479243Q1021.9206947414002 434.4758647918016 1018.5910923301644 430.69858474544174Q1015.2614899189289 426.9213046990819 1010.4769351935397 424.85079563663277Q1005.6923804681505 422.7802865741837 999.5368129851938 422.7802865741837ZM1135.5188946541482 411.1966277653468L1135.5188946541482 418.8631072668476Q1135.5188946541482 420.7657372161251 1134.8193983492667 422.52846790442635Q1134.1199020443853 424.29119859272765 1133.000707956575 425.7181710546858L1133.000707956575 425.7181710546858L1077.8244394275262 499.2492226238241L1133.5043452960895 499.2492226238241L1133.5043452960895 513.2391487214531L1056.671671167911 513.2391487214531L1056.671671167911 505.79650803751457Q1056.671671167911 504.4814549843374 1057.3152077684017 502.7187242960361Q1057.9587443688927 500.9559936077349 1059.189857865484 499.33316218040994L1059.189857865484 499.33316218040994L1114.6739047686808 425.2984732717569L1059.7774347615846 425.2984732717569L1059.7774347615846 411.1966277653468L1135.5188946541482 411.1966277653468ZM1232.3291832497412 447.96215354991597L1232.3291832497412 513.2391487214531L1224.3829052262881 513.2391487214531Q1221.7527991199338 513.2391487214531 1220.1299676926087 512.4277330077907Q1218.535116117479 511.61631729412824 1218.0314787779644 509.0141910399692L1218.0314787779644 509.0141910399692L1216.0169294199059 499.5290211457767Q1211.9878307037886 503.16640193116024 1208.1545909530382 506.0483267072719Q1204.3213512022878 508.90227163118817 1200.096393520804 510.86086128485624Q1195.87143583932 512.8474307907195 1191.0868811139308 513.8547054697489Q1186.3023263885416 514.8619801487782 1180.4545372797327 514.8619801487782L1180.4545372797327 514.8619801487782Q1174.522808614338 514.8619801487782 1169.31855610602 513.1831890170627Q1164.1422834498971 511.53237773754245 1160.309043699147 508.2027753263067Q1156.4758039483966 504.87317291507105 1154.2094359205805 499.780839815534Q1151.9430678927647 494.71648656819235 1151.9430678927647 487.74950337157304L1151.9430678927647 487.74950337157304Q1151.9430678927647 481.7058552973973 1155.2726703040005 476.10988485834565Q1158.6022727152363 470.5418942714893 1165.9889536947844 466.20501718122426Q1173.4036145265277 461.8681400909593 1185.3789912660982 459.09813472362873Q1197.3823478578638 456.3281293562982 1214.7018763667288 455.93641142556453L1214.7018763667288 455.93641142556453L1214.7018763667288 447.96215354991597Q1214.7018763667288 436.0707163669313 1209.6095432671918 429.9990884405603Q1204.5172101676549 423.899480661994 1194.5563827861429 423.899480661994L1194.5563827861429 423.899480661994Q1188.0090973724523 423.899480661994 1183.5323210212111 425.5502919415142Q1179.05554466997 427.22908307322973 1175.7819019631247 429.27161228348353Q1172.5082592562794 431.34212134593264 1170.1299718196824 433.02091247764815Q1167.7516843830856 434.6717237571684 1165.4573365030744 434.6717237571684L1165.4573365030744 434.6717237571684Q1163.6386461103825 434.6717237571684 1162.267633352815 433.7204087825296Q1160.9246004474426 432.76909380789084 1160.1131847337801 431.34212134593264L1160.1131847337801 431.34212134593264L1156.8955017313253 425.60625164590476Q1165.3454170942932 417.4361348048894 1175.1103855104384 413.4070360887722Q1184.8753539265836 409.3779373726551 1196.7667911095682 409.3779373726551L1196.7667911095682 409.3779373726551Q1205.3286258813173 409.3779373726551 1211.9878307037886 412.2039024443761Q1218.6190556740648 415.02986751609717 1223.1517917296967 420.06624091124365Q1227.6845277853286 425.10261430639014 1230.0068555175349 432.26545646837616Q1232.3291832497412 439.400318778167 1232.3291832497412 447.96215354991597L1232.3291832497412 447.96215354991597ZM1185.798689049027 502.271046660912L1185.798689049027 502.271046660912Q1190.5272840700256 502.271046660912 1194.444463377362 501.29175183407796Q1198.389622536893 500.3404368594392 1201.8591242091052 498.57770617113795Q1205.3286258813173 496.8149754828367 1208.5183290315767 494.29678878526346Q1211.6800523296408 491.7786020876902 1214.7018763667288 488.5609190852355L1214.7018763667288 488.5609190852355L1214.7018763667288 467.29623141683936Q1202.3068018442293 467.71592919976825 1193.6610275158946 469.2828009227027Q1184.9872733353645 470.8216927934419 1179.5591820094846 473.3398794910151Q1174.1031108314091 475.85806618858834 1171.6408838382263 479.2995880086051Q1169.1786568450436 482.7131299764266 1169.1786568450436 486.93808765791056L1169.1786568450436 486.93808765791056Q1169.1786568450436 490.96718637402773 1170.493709898221 493.9050708545298Q1171.7807830992028 496.8149754828367 1174.0191712748233 498.689625579919Q1176.2295795982486 500.536295824806 1179.2514036353368 501.403671242859Q1182.2732276724246 502.271046660912 1185.798689049027 502.271046660912ZM1286.5261569519562 368.89109124611656L1399.5367799686037 368.89109124611656L1399.5367799686037 385.31526448473306L1352.894366359108 385.31526448473306L1352.894366359108 513.2391487214531L1333.3644295268182 513.2391487214531L1333.3644295268182 385.31526448473306L1286.5261569519562 385.31526448473306L1286.5261569519562 368.89109124611656ZM1419.0667168008936 513.2391487214531L1401.1596113959286 513.2391487214531L1401.1596113959286 411.1966277653468L1411.4282171515883 411.1966277653468Q1414.3381217798951 411.1966277653468 1415.4573158677053 412.31582185315716Q1416.5485301033204 413.4070360887722 1416.9682278862492 416.1490616039075L1416.9682278862492 416.1490616039075L1418.1713615306453 432.04161765081415Q1423.4035938911588 421.38129396442076 1431.12603309705 415.3936055946355Q1438.8204924507459 409.3779373726551 1449.2010176151866 409.3779373726551L1449.2010176151866 409.3779373726551Q1453.425975296671 409.3779373726551 1456.8395172644923 410.3572321994891Q1460.2810390845093 411.30854717412785 1463.1909437128156 413.0153181580386L1463.1909437128156 413.0153181580386L1460.8686159806093 426.41766735956725Q1460.1691196757279 428.9358540571405 1457.7628523869357 428.9358540571405L1457.7628523869357 428.9358540571405Q1456.3358799249777 428.9358540571405 1453.425975296671 427.9845390825017Q1450.5160706683637 427.00524425566766 1445.2558584556555 427.00524425566766L1445.2558584556555 427.00524425566766Q1435.910587822439 427.00524425566766 1429.615121078506 432.461315433743Q1423.319654334573 437.88940675962306 1419.0667168008936 448.2699319240638L1419.0667168008936 448.2699319240638L1419.0667168008936 513.2391487214531ZM1553.4539468947187 447.96215354991597L1553.4539468947187 513.2391487214531L1545.47968901907 513.2391487214531Q1542.877562764911 513.2391487214531 1541.2547313375858 512.4277330077907Q1539.6598797624565 511.61631729412824 1539.1562424229414 509.0141910399692L1539.1562424229414 509.0141910399692L1537.141693064883 499.5290211457767Q1533.112594348766 503.16640193116024 1529.2793545980153 506.0483267072719Q1525.446114847265 508.90227163118817 1521.2211571657813 510.86086128485624Q1516.996199484297 512.8474307907195 1512.2116447589083 513.8547054697489Q1507.4270900335187 514.8619801487782 1501.57930092471 514.8619801487782L1501.57930092471 514.8619801487782Q1495.6195924071203 514.8619801487782 1490.443319750997 513.1831890170627Q1485.2670470948747 511.53237773754245 1481.433807344124 508.2027753263067Q1477.6005675933739 504.87317291507105 1475.3341995655578 499.780839815534Q1473.0678315377418 494.71648656819235 1473.0678315377418 487.74950337157304L1473.0678315377418 487.74950337157304Q1473.0678315377418 481.7058552973973 1476.3974339489778 476.10988485834565Q1479.7270363602133 470.5418942714893 1487.1137173397615 466.20501718122426Q1494.5283781715052 461.8681400909593 1506.5037549110752 459.09813472362873Q1518.5071115028413 456.3281293562982 1535.8266400117059 455.93641142556453L1535.8266400117059 455.93641142556453L1535.8266400117059 447.96215354991597Q1535.8266400117059 436.0707163669313 1530.734306912169 429.9990884405603Q1525.641973812632 423.899480661994 1515.6811464311204 423.899480661994L1515.6811464311204 423.899480661994Q1509.1338610174298 423.899480661994 1504.6570846661884 425.5502919415142Q1500.152328462752 427.22908307322973 1496.8786857559066 429.27161228348353Q1493.6050430490614 431.34212134593264 1491.25473546466 433.02091247764815Q1488.876448028063 434.6717237571684 1486.5541202958566 434.6717237571684L1486.5541202958566 434.6717237571684Q1484.76340975536 434.6717237571684 1483.3923969977923 433.7204087825296Q1482.0213842402245 432.76909380789084 1481.2379483787577 431.34212134593264L1481.2379483787577 431.34212134593264L1477.9922855241075 425.60625164590476Q1486.4701807392707 417.4361348048894 1496.2351491554155 413.4070360887722Q1506.0001175715606 409.3779373726551 1517.8915547545453 409.3779373726551L1517.8915547545453 409.3779373726551Q1526.4533895262944 409.3779373726551 1533.112594348766 412.2039024443761Q1539.743819319042 415.02986751609717 1544.276555374674 420.06624091124365Q1548.8092914303056 425.10261430639014 1551.131619162512 432.26545646837616Q1553.4539468947187 439.400318778167 1553.4539468947187 447.96215354991597L1553.4539468947187 447.96215354991597ZM1506.9234526940045 502.271046660912L1506.9234526940045 502.271046660912Q1511.652047715003 502.271046660912 1515.569227022339 501.29175183407796Q1519.5143861818706 500.3404368594392 1522.9838878540822 498.57770617113795Q1526.4533895262944 496.8149754828367 1529.6151128243587 494.29678878526346Q1532.8048159746181 491.7786020876902 1535.8266400117059 488.5609190852355L1535.8266400117059 488.5609190852355L1535.8266400117059 467.29623141683936Q1523.4315654892066 467.71592919976825 1514.7578113086765 469.2828009227027Q1506.112036980342 470.8216927934419 1500.6559658022666 473.3398794910151Q1495.2278744763862 475.85806618858834 1492.7656474832038 479.2995880086051Q1490.303420490021 482.7131299764266 1490.303420490021 486.93808765791056L1490.303420490021 486.93808765791056Q1490.303420490021 490.96718637402773 1491.5904936910028 493.9050708545298Q1492.90554674418 496.8149754828367 1495.1159550676052 498.689625579919Q1497.3543432432261 500.536295824806 1500.376167280314 501.403671242859Q1503.3979913174016 502.271046660912 1506.9234526940045 502.271046660912ZM1598.58544848567 513.2391487214531L1580.6503632285094 513.2391487214531L1580.6503632285094 411.1966277653468L1591.3106869149028 411.1966277653468Q1595.143926665653 411.1966277653468 1596.1512013446822 414.91794810731614L1596.1512013446822 414.91794810731614L1597.5781738066407 425.99796957663835Q1604.2093987769167 418.66724830148075 1612.4354753223229 414.13451224584895Q1620.6335720155334 409.6017761902171 1631.4058151107074 409.6017761902171L1631.4058151107074 409.6017761902171Q1639.7717909170897 409.6017761902171 1646.1791770698042 412.37178155754765Q1652.5585833703226 415.1417869248782 1656.8395007561971 420.20614017221993Q1661.1204181420717 425.2984732717569 1663.330826465497 432.461315433743Q1665.569214641118 439.5961777435338 1665.569214641118 448.2699319240638L1665.569214641118 448.2699319240638L1665.569214641118 513.2391487214531L1647.6341293839573 513.2391487214531L1647.6341293839573 448.2699319240638Q1647.6341293839573 436.686273115227 1642.3459373190535 430.2788869625129Q1637.0577452541497 423.899480661994 1626.1735827501943 423.899480661994L1626.1735827501943 423.899480661994Q1618.2273047267408 423.899480661994 1611.3162812345122 427.73272041274436Q1604.4052577422835 431.53798031129946 1598.58544848567 438.0852657249899L1598.58544848567 438.0852657249899L1598.58544848567 513.2391487214531ZM1755.104741665944 421.46523352100655L1751.0756429498265 428.01251893469697Q1749.8725093054304 430.2509071103176 1747.3543226078573 430.2509071103176L1747.3543226078573 430.2509071103176Q1745.8434105893134 430.2509071103176 1743.9128007878408 429.1317130225073Q1742.0101708385628 428.01251893469697 1739.2401654712326 426.66948602932456Q1736.470160103902 425.2984732717569 1732.6369203531513 424.1512993317513Q1728.803680602401 422.9761455395505 1723.571448241888 422.9761455395505L1723.571448241888 422.9761455395505Q1719.038712186256 422.9761455395505 1715.4293112530677 424.1512993317513Q1711.7919304676843 425.2984732717569 1709.2177840657205 427.3130226298155Q1706.6436376637566 429.3275719878741 1705.3006047583845 432.01363779861884Q1703.9295920008167 434.6717237571684 1703.9295920008167 437.80546720303727L1703.9295920008167 437.80546720303727Q1703.9295920008167 441.7226465103734 1706.1959600286327 444.3527526167277Q1708.4623280564483 446.9548788708867 1712.183648398418 448.8854886723595Q1715.9329485925823 450.78811862163707 1720.6615436135812 452.2430709357905Q1725.3901386345797 453.6980232499439 1730.3705523253357 455.3768143816594Q1735.3509660160917 457.0276256611796 1740.1075408892852 459.0421750192382Q1744.8361359102842 461.0567243772968 1748.5574562522534 464.07854841438467Q1752.2787765942226 467.10037245147254 1754.5451446220386 471.49320924612806Q1756.8115126498542 475.85806618858834 1756.8115126498542 482.01363367154516L1756.8115126498542 482.01363367154516Q1756.8115126498542 489.06455642475015 1754.293325952281 495.0522447945354Q1751.775139254708 501.03993316432064 1746.8506852683427 505.43276995897617Q1741.8982514297818 509.8256067536317 1734.7633891199912 512.3437934512049Q1727.600546958005 514.8619801487782 1718.2272964725935 514.8619801487782L1718.2272964725935 514.8619801487782Q1707.5669727862 514.8619801487782 1698.89321860567 511.3644986243709Q1690.2474442773355 507.8949969521589 1684.2037962031595 502.4669056262788L1684.2037962031595 502.4669056262788L1688.4287538846434 495.61184183844057Q1689.2401695983062 494.29678878526346 1690.3313838339213 493.597292480382Q1691.4505779217316 492.89779617550056 1693.2692683144232 492.89779617550056L1693.2692683144232 492.89779617550056Q1695.0599788549198 492.89779617550056 1697.0745282129783 494.29678878526346Q1699.0890775710368 495.7237612472216 1701.9710023471484 497.43053223113236Q1704.85292712326 499.1373032150431 1708.9100056915727 500.536295824806Q1712.9950641120804 501.96326828676416 1719.1506315950369 501.96326828676416L1719.1506315950369 501.96326828676416Q1724.3828639555504 501.96326828676416 1728.3000432628864 500.5922555291965Q1732.245202422418 499.2492226238241 1734.847328676577 496.9268948916177Q1737.4774347829311 494.60456715941126 1738.736528131718 491.5827431223234Q1739.9956214805043 488.5609190852355 1739.9956214805043 485.147377117414L1739.9956214805043 485.147377117414Q1739.9956214805043 480.8944395837348 1737.7292534526882 478.12443421640427Q1735.4628854248726 475.3544288490737 1731.741565082903 473.39583919540564Q1728.0202447409338 471.4372495417376 1723.2356900155446 469.9822972275841Q1718.4511352901554 468.5273449134307 1713.4427417472043 466.9045134861057Q1708.4623280564483 465.28168205878075 1703.6777733310591 463.2391528485269Q1698.89321860567 461.16864378607784 1695.1718982637008 458.03490034020894Q1691.4505779217316 454.9291367465352 1689.1842098939155 450.34044098651293Q1686.9178418660995 445.75174522649064 1686.9178418660995 439.2044598128002L1686.9178418660995 439.2044598128002Q1686.9178418660995 433.35667070399126 1689.324109154892 427.9845390825017Q1691.7583562958794 422.5844276088169 1696.3750319080968 418.4993691883092Q1701.01968737251 414.4143107678015 1707.7628317515669 412.0080434790093Q1714.5059761306243 409.6017761902171 1723.1797303111543 409.6017761902171L1723.1797303111543 409.6017761902171Q1733.2524771014473 409.6017761902171 1741.254714829291 412.7634994882813Q1749.2569525571348 415.92522278634544 1755.104741665944 421.46523352100655L1755.104741665944 421.46523352100655Z " fill="#2768c9" transform="matrix(0.498061388745046,0,0,0.498061388745046,0,80.92173402313394)"/></g></svg>